<?xml version="1.0" encoding="UTF-8" standalone="no"?>
<!-- Created with Inkscape (http://www.inkscape.org/) -->

<svg
   xmlns:dc="http://purl.org/dc/elements/1.1/"
   xmlns:cc="http://creativecommons.org/ns#"
   xmlns:rdf="http://www.w3.org/1999/02/22-rdf-syntax-ns#"
   xmlns:svg="http://www.w3.org/2000/svg"
   xmlns="http://www.w3.org/2000/svg"
   xmlns:xlink="http://www.w3.org/1999/xlink"
   xmlns:sodipodi="http://sodipodi.sourceforge.net/DTD/sodipodi-0.dtd"
   xmlns:inkscape="http://www.inkscape.org/namespaces/inkscape"
   width="744.09448819"
   height="1052.3622047"
   id="svg2"
   version="1.1"
   inkscape:version="0.48.2 r9819"
   sodipodi:docname="borax.svg"
   inkscape:export-filename="/Users/curtis/dev/blog/img/borax.png"
   inkscape:export-xdpi="314.54001"
   inkscape:export-ydpi="314.54001">
  <defs
     id="defs4" />
  <sodipodi:namedview
     id="base"
     pagecolor="#ffffff"
     bordercolor="#666666"
     borderopacity="1.0"
     inkscape:pageopacity="0.0"
     inkscape:pageshadow="2"
     inkscape:zoom="2.9564375"
     inkscape:cx="122.76628"
     inkscape:cy="723.39637"
     inkscape:document-units="px"
     inkscape:current-layer="layer1"
     showgrid="false"
     showguides="true"
     inkscape:guide-bbox="true"
     inkscape:window-width="2027"
     inkscape:window-height="1331"
     inkscape:window-x="1920"
     inkscape:window-y="0"
     inkscape:window-maximized="0" />
  <metadata
     id="metadata7">
    <rdf:RDF>
      <cc:Work
         rdf:about="">
        <dc:format>image/svg+xml</dc:format>
        <dc:type
           rdf:resource="http://purl.org/dc/dcmitype/StillImage" />
        <dc:title></dc:title>
      </cc:Work>
    </rdf:RDF>
  </metadata>
  <g
     inkscape:label="Layer 1"
     inkscape:groupmode="layer"
     id="layer1">
    <g
       id="g4149"
       transform="translate(2.3669114,0)">
      <path
         sodipodi:nodetypes="csssssccssssscc"
         inkscape:connector-curvature="0"
         d="m 202.324,280.15424 c -3.73845,-0.9375 -9.06336,-2.1875 -15.40917,-3.4375 -6.34582,-1.25 -13.71254,-2.5 -21.53462,-3.4375 -7.82209,-0.9375 -16.09953,-1.5625 -24.2668,-1.5625 -8.16726,0 -16.44471,0.625 -24.26679,1.5625 -7.82208,0.9375 -15.1888,2.1875 -21.534621,3.4375 -6.345812,1.25 -11.670717,2.5 -15.40917,3.4375 l -8.768042,-41.68248 c 3.367317,-0.9375 8.346861,-2.1875 14.795767,-3.4375 6.448906,-1.25 14.367176,-2.5 23.611936,-3.4375 9.24477,-0.9375 19.81603,-1.5625 31.57092,-1.5625 11.75489,0 22.32616,0.625 31.57092,1.5625 9.24477,0.9375 17.16304,2.1875 23.61194,3.4375 6.44891,1.25 11.42845,2.5 14.79577,3.4375 z"
         style="fill:none;stroke:#000000"
         id="rect4045-8" />
      <path
         sodipodi:nodetypes="csccscc"
         d="m 208.21445,279.34766 c 0,0 -34.43198,-10 -67.10104,-10 -32.66906,0 -67.101031,10 -67.101031,10 l -8,-37.31134 c 0,0 28.081459,-10 75.101031,-10 47.01958,0 75.10104,10 75.10104,10 z"
         style="fill:#ffffff;stroke:#ffffff"
         id="rect4045-6"
         inkscape:connector-curvature="0" />
      <path
         id="path4143"
         d="m 208.21445,279.34766 c 0,0 -34.43198,-10 -67.10104,-10 -32.66906,0 -67.101035,10 -67.101035,10"
         style="fill:none;stroke:#000000"
         inkscape:connector-curvature="0" />
      <g
         transform="translate(11.719589,-12.915465)"
         id="g4039">
        <text
           xml:space="preserve"
           style="font-size:40px;font-style:normal;font-weight:normal;text-align:center;line-height:125%;letter-spacing:0px;word-spacing:0px;text-anchor:middle;fill:#000000;fill-opacity:1;stroke:none;font-family:Sans"
           id="text4016"
           sodipodi:linespacing="125%"><textPath
             style="font-style:normal;font-variant:normal;font-weight:bold;font-stretch:normal;fill:#000000;font-family:Capitals;-inkscape-font-specification:Capitals Bold"
             xlink:href="#path4033"
             startOffset="50%"
             id="textPath4035">BORAX</textPath></text>
        <path
           style="fill:none;stroke:none"
           d="m 62.185574,290.06519 c 0,0 30.924576,-10 66.849496,-10 37.35997,0 66.84949,10 66.84949,10"
           id="path4033"
           inkscape:connector-curvature="0"
           sodipodi:nodetypes="csc" />
      </g>
      <path
         id="rect4045"
         d="m 66.012375,242.03632 c 0,0 28.081459,-10 75.101035,-10 47.01958,0 75.10104,10 75.10104,10"
         style="fill:none;stroke:#000000"
         inkscape:connector-curvature="0" />
    </g>
    <text
       xml:space="preserve"
       style="font-size:40px;font-style:normal;font-weight:normal;text-align:center;line-height:125%;letter-spacing:0px;word-spacing:0px;text-anchor:middle;fill:#000000;fill-opacity:1;stroke:none;font-family:Sans"
       x="143.35533"
       y="316.9848"
       id="text4145"
       sodipodi:linespacing="125%"><tspan
         sodipodi:role="line"
         id="tspan4147"
         x="143.35533"
         y="316.9848"
         style="font-size:32px;font-style:italic;font-variant:normal;font-weight:bold;font-stretch:normal;font-family:Brush Script MT;-inkscape-font-specification:Brush Script MT Bold Italic">Natural</tspan></text>
    <text
       xml:space="preserve"
       style="font-size:40px;font-style:normal;font-weight:normal;text-align:center;line-height:125%;letter-spacing:0px;word-spacing:0px;text-anchor:middle;fill:#000000;fill-opacity:1;stroke:none;font-family:Sans"
       x="142.94908"
       y="296.55963"
       id="text4145-0"
       sodipodi:linespacing="125%"><tspan
         sodipodi:role="line"
         id="tspan4147-6"
         x="142.94908"
         y="296.55963"
         style="font-size:32px;font-style:italic;font-variant:normal;font-weight:bold;font-stretch:normal;font-family:Brush Script MT;-inkscape-font-specification:Brush Script MT Bold Italic">A</tspan></text>
    <text
       xml:space="preserve"
       style="font-size:40px;font-style:normal;font-weight:normal;text-align:center;line-height:125%;letter-spacing:0px;word-spacing:0px;text-anchor:middle;fill:#000000;fill-opacity:1;stroke:none;font-family:Sans"
       x="143.58775"
       y="364.27136"
       id="text4180"
       sodipodi:linespacing="125%"><tspan
         sodipodi:role="line"
         id="tspan4182"
         x="143.58775"
         y="364.27136"
         style="font-size:28px;font-style:normal;font-variant:normal;font-weight:bold;font-stretch:normal;font-family:Arial;-inkscape-font-specification:Arial Bold">RIA Cleanser</tspan></text>
    <g
       id="g4313"
       transform="translate(-8.7943682,-56.486903)">
      <path
         inkscape:connector-curvature="0"
         id="path4186"
         d="m 182.64576,385.03846 c -12.61662,2.49902 -23.02113,5.90209 -29.12797,9.23434 6.55406,-2.65447 15.55949,-5.19295 25.8918,-7.11698 23.2897,-4.33688 44.54579,-3.90253 47.48677,0.96411 1.22705,2.03049 -0.95845,4.50164 -5.58021,7.02004 8.23709,-3.3322 12.63839,-6.84907 11.00032,-9.5597 -2.94098,-4.86664 -24.18858,-5.28696 -47.47828,-0.95008 -0.72781,0.13553 -1.4783,0.26679 -2.19243,0.40827 z"
         style="fill:#000000;fill-opacity:1;stroke:none" />
      <path
         inkscape:connector-curvature="0"
         id="path4186-2"
         d="m 124.38982,385.03846 c 12.61662,2.49902 23.02113,5.90209 29.12797,9.23434 -6.55406,-2.65447 -15.55948,-5.19295 -25.8918,-7.11698 -23.2897,-4.33688 -44.545783,-3.90253 -47.486763,0.96411 -1.22705,2.03049 0.95845,4.50164 5.58021,7.02004 -8.23709,-3.3322 -12.63839,-6.84907 -11.00032,-9.5597 2.94098,-4.86664 24.18858,-5.28696 47.478273,-0.95008 0.72781,0.13553 1.4783,0.26679 2.19243,0.40827 z"
         style="fill:#000000;fill-opacity:1;stroke:none" />
      <path
         sodipodi:nodetypes="ccsscssc"
         inkscape:connector-curvature="0"
         id="path4186-4"
         d="m 160.53656,385.08074 c -3.01794,2.49902 -5.50674,5.90209 -6.96752,9.23434 1.56776,-2.65447 3.72189,-5.19295 6.19342,-7.11698 5.57098,-4.33688 10.65552,-3.90253 11.35901,0.96411 0.29352,2.03049 -0.22926,6.50164 -1.33481,9.02004 1.97035,-3.3322 3.02315,-8.84907 2.63132,-11.5597 -0.70349,-4.86664 -5.786,-5.28696 -11.35698,-0.95008 -0.1741,0.13553 -0.35362,0.26679 -0.52444,0.40827 z"
         style="fill:#000000;fill-opacity:1;stroke:none" />
      <path
         sodipodi:nodetypes="ccsscssc"
         inkscape:connector-curvature="0"
         id="path4186-4-9"
         d="m 146.54754,385.03846 c 3.01794,2.49902 5.50674,5.90209 6.96752,9.23434 -1.56776,-2.65447 -3.72189,-5.19295 -6.19342,-7.11698 -5.57098,-4.33688 -10.65552,-3.90253 -11.35901,0.96411 -0.29352,2.03049 0.22926,6.50164 1.33481,9.02004 -1.97035,-3.3322 -3.02315,-8.84907 -2.63132,-11.5597 0.70349,-4.86664 5.786,-5.28696 11.35698,-0.95008 0.1741,0.13553 0.35362,0.26679 0.52444,0.40827 z"
         style="fill:#000000;fill-opacity:1;stroke:none" />
      <path
         sodipodi:nodetypes="ccsscssc"
         inkscape:connector-curvature="0"
         id="path4186-4-7"
         d="m 140.25732,385.28035 c 3.31717,3.38503 8.22284,6.63829 13.2604,9.00697 -3.91606,-2.22503 -7.50406,-4.90082 -10.02254,-7.63084 -5.67678,-6.15361 -3.75593,-10.25883 4.28116,-9.17333 3.35328,0.45289 2.1732,14.92947 5.98004,16.72092 -4.91535,-2.79506 -5.29898,-18.07488 -9.77549,-18.67948 -8.03709,-1.0855 -9.93478,3.02285 -4.25799,9.17646 0.17741,0.19231 0.34661,0.38769 0.53442,0.5793 z"
         style="fill:#000000;fill-opacity:1;stroke:none" />
      <path
         sodipodi:nodetypes="ccsscssc"
         inkscape:connector-curvature="0"
         id="path4186-4-7-7"
         d="m 166.90856,385.21763 c -3.31717,3.38504 -8.22284,6.6383 -13.2604,9.00698 3.91606,-2.22503 7.50406,-4.90082 10.02254,-7.63084 5.67678,-6.15361 3.75593,-10.25883 -4.28116,-9.17334 -3.35328,0.4529 -2.1732,14.92948 -5.98004,16.72093 4.91535,-2.79506 5.29898,-18.07489 9.77549,-18.67948 8.03709,-1.08551 9.93478,3.02285 4.25799,9.17646 -0.17741,0.19231 -0.34661,0.38769 -0.53442,0.57929 z"
         style="fill:#000000;fill-opacity:1;stroke:none" />
    </g>
  </g>
</svg>
